# xmcd CD database file
#
# Track frame offsets:
#	150
#	15052
#	29837
#	47945
#	61686
#	77483
#	91563
#	105077
#	114443
#
# Disc length: 1713 seconds
#
# Revision: 0
# Processed by: cddbd v1.5.2PL0 Copyright (c) Steve Scherf et al.
# Submitted via: CDex 1.70beta2
#
DISCID=5406af09
DTITLE=Montana - studio-live
DYEAR=1900
DGENRE=Country
TTITLE0=American Honky Tonk bar
TTITLE1=Broke Down
TTITLE2=Country Music
TTITLE3=My Old Kentucky Home
TTITLE4=If Tomorrow Never Comes
TTITLE5=Daddy's Honky Tonk Heart
TTITLE6=Southern Star
TTITLE7=Yakety Axe
TTITLE8=Thank God Fot The Radio
EXTD=
EXTT0=
EXTT1=
EXTT2=
EXTT3=
EXTT4=
EXTT5=
EXTT6=
EXTT7=
EXTT8=
PLAYORDER=
